<?xml version="1.0" encoding="UTF-8"?>
<svg id="Layer_2" data-name="Layer 2" xmlns="http://www.w3.org/2000/svg" xmlns:xlink="http://www.w3.org/1999/xlink" viewBox="0 0 1417.62 371.03">
  <defs>
    <style>
      .cls-1 {
        fill: url(#linear-gradient-4);
      }

      .cls-2 {
        fill: url(#linear-gradient-3);
      }

      .cls-3 {
        fill: url(#linear-gradient-2);
      }

      .cls-4 {
        fill: url(#linear-gradient);
      }

      .cls-5 {
        fill: #f97a7a;
        stroke: #fc4242;
        stroke-miterlimit: 10;
      }

      .cls-6 {
        fill: #fff;
      }

      .cls-7 {
        fill: #42a0fe;
      }

      .cls-8 {
        fill: #0071e3;
      }
    </style>
    <linearGradient id="linear-gradient" x1="963.39" y1="209.85" x2="1065.24" y2="209.85" gradientUnits="userSpaceOnUse">
      <stop offset="0" stop-color="#42a0fe"/>
      <stop offset=".05" stop-color="#3a9afa"/>
      <stop offset=".27" stop-color="#2088f0"/>
      <stop offset=".5" stop-color="#0e7be8"/>
      <stop offset=".74" stop-color="#0373e4"/>
      <stop offset="1" stop-color="#0071e3"/>
    </linearGradient>
    <linearGradient id="linear-gradient-2" x1="1088.39" y1="190.94" x2="1335.31" y2="190.94" xlink:href="#linear-gradient"/>
    <linearGradient id="linear-gradient-3" x1="1363.35" y1="190.94" x2="1417.62" y2="190.94" xlink:href="#linear-gradient"/>
    <linearGradient id="linear-gradient-4" x1="-1.47" y1="252.17" x2="295.6" y2="44.16" xlink:href="#linear-gradient"/>
  </defs>
  <g id="Layer_1-2" data-name="Layer 1">
    <g>
      <g>
        <g>
          <polygon class="cls-6" points="407.2 321.13 407.2 226.76 321.69 60.75 377.78 60.75 433.19 181.51 488.96 60.75 544.88 60.75 459.37 226.76 459.37 321.13 407.2 321.13"/>
          <path class="cls-8" d="M542.42,62.25l-84.21,163.5-.33.65v93.24h-49.17v-93.24l-.33-.65-84.21-163.5h52.67l53.65,116.92,2.72,5.92,2.73-5.92,54.01-116.92h52.49M547.34,59.25h-59.33l-54.81,118.67-54.45-118.67h-59.51l86.47,167.87v95.51h55.17v-95.51l86.47-167.87h0Z"/>
        </g>
        <g>
          <path class="cls-6" d="M640.86,324.75c-27.65,0-50.02-8.97-66.46-26.66-16.48-17.72-24.83-42.21-24.83-72.78v-2.35c0-19.1,3.72-36.34,11.06-51.25,7.31-14.86,17.98-26.52,31.71-34.65,13.75-8.14,29.95-12.27,48.17-12.27,25.88,0,47.29,8.01,63.63,23.82,16.35,15.82,25.6,37.65,27.5,64.87l.36,13.32c0,29.46-8.33,53.43-24.75,71.21-16.39,17.75-38.72,26.74-66.37,26.74ZM640.5,163.94c-13.24,0-23.64,5.24-30.89,15.58-7.14,10.18-10.76,26.04-10.76,47.15,0,18.83,3.62,33.48,10.77,43.54,7.26,10.22,17.77,15.4,31.25,15.4s23.5-5.11,30.88-15.2c7.27-9.94,10.96-25.93,10.96-47.54,0-18.47-3.68-33.02-10.95-43.26-7.38-10.4-17.9-15.67-31.25-15.67Z"/>
          <path class="cls-8" d="M640.5,126.29c25.48,0,46.53,7.87,62.58,23.4,16.06,15.54,25.16,37.02,27.04,63.83l.36,13.28c0,29.09-8.2,52.71-24.35,70.19-16.09,17.42-38.05,26.26-65.27,26.26s-49.21-8.81-65.37-26.18c-16.21-17.43-24.43-41.58-24.43-71.76v-2.35c0-18.87,3.67-35.89,10.91-50.59,7.18-14.59,17.65-26.04,31.13-34.02,13.51-8,29.46-12.06,47.4-12.06M640.86,287.1c13.61,0,24.41-5.32,32.09-15.81,7.47-10.2,11.25-26.49,11.25-48.42,0-18.79-3.78-33.63-11.23-44.13-7.68-10.82-18.61-16.3-32.47-16.3s-24.57,5.46-32.12,16.22c-7.32,10.43-11.04,26.59-11.04,48.01,0,19.15,3.72,34.09,11.05,44.4,7.55,10.64,18.48,16.03,32.47,16.03M640.5,123.29c-18.57,0-34.88,4.16-48.93,12.48-14.05,8.32-24.81,20.08-32.29,35.27-7.48,15.2-11.21,32.5-11.21,51.92v2.35c0,31.11,8.41,55.72,25.23,73.8,16.82,18.09,39.34,27.13,67.56,27.13s50.71-9.07,67.47-27.22c16.76-18.15,25.14-42.24,25.14-72.27l-.36-13.39c-1.93-27.74-11.25-49.68-27.95-65.85-16.7-16.16-38.26-24.24-64.67-24.24h0ZM640.86,284.1c-13.02,0-23.04-4.92-30.03-14.77-7-9.84-10.49-24.06-10.49-42.67,0-20.89,3.5-36.32,10.49-46.29,6.99-9.96,16.88-14.95,29.67-14.95s22.91,5.01,30.03,15.04c7.11,10.03,10.67,24.16,10.67,42.39,0,21.38-3.56,36.93-10.67,46.65-7.12,9.72-17,14.58-29.67,14.58h0Z"/>
        </g>
        <g>
          <polygon class="cls-6" points="887.88 321.13 837.02 241.75 816.45 262.32 816.45 321.13 767.18 321.13 767.18 46.28 816.45 46.28 816.45 203.09 829.27 186.62 878.88 128.41 937.68 128.41 868.35 208.38 944.29 321.13 887.88 321.13"/>
          <path class="cls-8" d="M814.95,47.78v159.68l5.37-6.9,10.09-12.97,49.17-57.69h54.81l-66.42,76.62-1.5,1.74,1.28,1.91,73.73,109.47h-52.78l-49.4-77.13-2.01-3.14-2.64,2.64-18.81,18.81-.88.88v57.94h-46.28V47.78h46.28M817.95,44.78h-52.28v277.85h52.28v-59.7l18.81-18.81,50.29,78.51h60.06l-76.88-114.14,70.73-81.58h-62.77l-50.11,58.79-10.13,13.02V44.78h0Z"/>
        </g>
        <g>
          <path class="cls-6" d="M1065.24,230.92h-101.84v-42.15h101.84v42.15Z"/>
          <path class="cls-4" d="M1053.24,200.77v18.15h-77.84v-18.15h77.84M1065.24,188.77h-101.84v42.15h101.84v-42.15h0Z"/>
        </g>
        <path class="cls-3" d="M1259.34,268.37h-95.15l-18.09,54.27h-57.71l98.04-263.38h50.29l98.59,263.38h-57.71l-18.27-54.27ZM1178.84,224.41h65.85l-33.1-98.59-32.74,98.59Z"/>
        <path class="cls-2" d="M1417.62,322.63h-54.27V59.25h54.27v263.38Z"/>
      </g>
      <g>
        <path class="cls-6" d="M268.14,127.14c7-82.16-2.07-107.31-6.98-114.72-1.31-1.97-3.76-2.9-6.01-2.17-26.25,8.53-66.76,70.21-66.76,70.21-18-7-48-7-48-7,0,0-30,0-48,7,0,0-40.51-61.68-66.76-70.21-2.25-.73-4.71.19-6.01,2.17-4.91,7.41-13.98,32.56-6.98,114.72.44,5.18.35,10.41-.31,15.57-3.04,23.81-9.33,101.02,28.06,151.76,40.05,54.36,73.74,60.52,96.73,66.17,2.15.53,4.39.53,6.55,0,22.98-5.66,56.67-11.81,96.73-66.17,37.39-50.74,31.1-127.95,28.06-151.76-.66-5.16-.75-10.38-.31-15.57Z"/>
        <g>
          <path class="cls-1" d="M278.37,141.44c-.56-4.41-.65-8.94-.27-13.45,5.34-62.66,2.36-104.53-8.6-121.09-2.86-4.32-7.64-6.9-12.78-6.9-1.59,0-3.15.25-4.66.74-24.35,7.91-55.98,50.9-67.75,67.91-19-5.12-42.78-5.19-43.92-5.19s-24.91.07-43.92,5.19C84.71,51.64,53.07,8.65,28.72.74c-1.51-.49-3.08-.74-4.66-.74-5.14,0-9.92,2.58-12.78,6.9C.32,23.46-2.66,65.33,2.68,127.99c.38,4.51.29,9.04-.27,13.45-3.02,23.66-9.79,105.05,29.93,158.96,40.49,54.95,75.94,63.54,99.4,69.23,1.01.25,2.01.49,2.99.73,1.85.46,3.76.69,5.66.69s3.81-.23,5.66-.69c.98-.24,1.97-.48,2.99-.73,23.46-5.68,58.91-14.27,99.4-69.23,39.72-53.91,32.95-135.3,29.93-158.96ZM240.39,294.46c-40.05,54.36-73.74,60.52-96.73,66.17-2.15.53-4.39.53-6.55,0-22.98-5.66-56.67-11.81-96.73-66.17C3,243.72,9.29,166.51,12.33,142.7c.66-5.16.75-10.38.31-15.57C5.64,44.98,14.71,19.83,19.62,12.42c1.31-1.97,3.76-2.9,6.01-2.17,26.25,8.53,66.76,70.21,66.76,70.21,18-7,48-7,48-7,0,0,9.86,0,21.66,1.32-.07.18-72.38,178.12,91.43,197.4-3.62,7.79-7.94,15.29-13.09,22.28Z"/>
          <g>
            <g>
              <g>
                <path d="M167.5,227.53c-.03-.21-2.59-21.27,11.71-37.58,11.23-12.79,29.53-19.28,54.39-19.28,3.03,0,6.2.1,9.42.29l.61.04-.16.59c-.14.51-14.38,51.3-54.75,51.3h0c-2.61,0-5.3-.21-8.02-.63-.28-.04-.56-.06-.84-.06-.83,0-1.69.19-2.49.55l-9.78,5.51-.1-.73Z"/>
                <path class="cls-7" d="M233.61,171.17c3,0,6.11.09,9.39.29,0,0-13.82,50.93-54.27,50.93-2.54,0-5.19-.2-7.94-.63-.31-.05-.61-.07-.92-.07-.93,0-1.84.21-2.69.6l-9.17,5.17s-7.37-56.29,65.61-56.29M233.61,170.17c-25.02,0-43.44,6.54-54.77,19.45-14.46,16.47-11.95,37.1-11.84,37.97l.19,1.47,1.29-.73,9.13-5.15c.72-.32,1.49-.49,2.24-.49.26,0,.52.02.77.06,2.74.42,5.46.64,8.1.64,16.89,0,31.81-8.96,43.14-25.91,8.5-12.72,12.06-25.63,12.1-25.76l.32-1.19-1.23-.07c-3.23-.19-6.41-.29-9.45-.29h0Z"/>
              </g>
              <path d="M112.78,227.46s8-61-75-56c0,0,15.6,57.53,62.21,50.31,1.23-.19,2.48.01,3.61.53l9.17,5.17Z"/>
            </g>
            <path d="M181.03,307.15c-19.58,1.62-37.64-15.86-37.64-15.86v-16.83c12.63-3.99,15.87-11.96,17.28-16.85.6-2.08-.98-4.15-3.15-4.15h-34.27c-2.17,0-3.75,2.07-3.15,4.15,1.42,4.89,4.65,12.86,17.28,16.85v16.83s-18.06,17.48-37.64,15.86c-2.35-.19-4.36,1.68-4.36,4.04h0c0,2.24,1.81,4.05,4.06,4.06,6.54.02,20.46-1.65,37.92-13.57.68-.46,1.43-.81,2.22-1.02h0c.53-.13,1.08-.13,1.6,0h0c.79.2,1.55.55,2.22,1.02,17.46,11.93,31.38,13.6,37.92,13.57,2.24,0,4.06-1.82,4.06-4.06h0c0-2.36-2.01-4.24-4.36-4.04Z"/>
          </g>
          <circle class="cls-5" cx="51.39" cy="259.46" r="20"/>
        </g>
      </g>
    </g>
  </g>
</svg>