<?xml version="1.0" encoding="UTF-8"?>
<svg id="Layer_2" data-name="Layer 2" xmlns="http://www.w3.org/2000/svg" xmlns:xlink="http://www.w3.org/1999/xlink" viewBox="0 0 1417.62 371.03">
  <defs>
    <style>
      .cls-1 {
        fill: url(#linear-gradient-4);
      }

      .cls-2 {
        fill: url(#linear-gradient-3);
      }

      .cls-3 {
        fill: url(#linear-gradient-2);
      }

      .cls-4 {
        fill: url(#linear-gradient);
      }

      .cls-5 {
        fill: #f97a7a;
        stroke: #fc4242;
        stroke-miterlimit: 10;
      }

      .cls-6 {
        fill: #fff;
      }

      .cls-7 {
        fill: #42a0fe;
      }
    </style>
    <linearGradient id="linear-gradient" x1="963.39" y1="209.85" x2="1065.24" y2="209.85" gradientUnits="userSpaceOnUse">
      <stop offset="0" stop-color="#42a0fe"/>
      <stop offset=".05" stop-color="#3a9afa"/>
      <stop offset=".27" stop-color="#2088f0"/>
      <stop offset=".5" stop-color="#0e7be8"/>
      <stop offset=".74" stop-color="#0373e4"/>
      <stop offset="1" stop-color="#0071e3"/>
    </linearGradient>
    <linearGradient id="linear-gradient-2" x1="1088.39" y1="190.94" x2="1335.31" y2="190.94" xlink:href="#linear-gradient"/>
    <linearGradient id="linear-gradient-3" x1="1363.35" y1="190.94" x2="1417.62" y2="190.94" xlink:href="#linear-gradient"/>
    <linearGradient id="linear-gradient-4" x1="-1.47" y1="252.17" x2="295.6" y2="44.16" xlink:href="#linear-gradient"/>
  </defs>
  <g id="Layer_1-2" data-name="Layer 1">
    <g>
      <g>
        <path class="cls-6" d="M433.19,177.92l54.81-118.67h59.33l-86.47,167.87v95.51h-55.17v-95.51l-86.47-167.87h59.51l54.45,118.67Z"/>
        <path class="cls-6" d="M548.06,222.96c0-19.41,3.74-36.72,11.21-51.92,7.48-15.19,18.24-26.95,32.29-35.27,14.05-8.32,30.36-12.48,48.93-12.48,26.41,0,47.96,8.08,64.67,24.24,16.7,16.16,26.02,38.11,27.95,65.85l.36,13.39c0,30.03-8.38,54.12-25.14,72.27-16.76,18.15-39.25,27.22-67.47,27.22s-50.74-9.04-67.56-27.13c-16.82-18.09-25.23-42.69-25.23-73.8v-2.35ZM600.34,226.67c0,18.6,3.5,32.82,10.49,42.67,6.99,9.84,17,14.77,30.03,14.77s22.55-4.86,29.67-14.58c7.11-9.72,10.67-25.27,10.67-46.65,0-18.24-3.56-32.37-10.67-42.39-7.12-10.02-17.13-15.04-30.03-15.04s-22.67,4.98-29.67,14.95c-7,9.97-10.49,25.4-10.49,46.29Z"/>
        <path class="cls-6" d="M836.77,244.13l-18.81,18.81v59.7h-52.28V44.78h52.28v153.94l10.13-13.02,50.11-58.79h62.77l-70.73,81.58,76.88,114.14h-60.06l-50.29-78.51Z"/>
        <g>
          <path class="cls-6" d="M1065.24,230.92h-101.84v-42.15h101.84v42.15Z"/>
          <path class="cls-4" d="M1053.24,200.77v18.15h-77.84v-18.15h77.84M1065.24,188.77h-101.84v42.15h101.84v-42.15h0Z"/>
        </g>
        <path class="cls-3" d="M1259.34,268.37h-95.15l-18.09,54.27h-57.71l98.04-263.38h50.29l98.59,263.38h-57.71l-18.27-54.27ZM1178.84,224.41h65.85l-33.1-98.59-32.74,98.59Z"/>
        <path class="cls-2" d="M1417.62,322.63h-54.27V59.25h54.27v263.38Z"/>
      </g>
      <g>
        <path class="cls-6" d="M268.14,127.14c7-82.16-2.07-107.31-6.98-114.72-1.31-1.97-3.76-2.9-6.01-2.17-26.25,8.53-66.76,70.21-66.76,70.21-18-7-48-7-48-7,0,0-30,0-48,7,0,0-40.51-61.68-66.76-70.21-2.25-.73-4.71.19-6.01,2.17-4.91,7.41-13.98,32.56-6.98,114.72.44,5.18.35,10.41-.31,15.57-3.04,23.81-9.33,101.02,28.06,151.76,40.05,54.36,73.74,60.52,96.73,66.17,2.15.53,4.39.53,6.55,0,22.98-5.66,56.67-11.81,96.73-66.17,37.39-50.74,31.1-127.95,28.06-151.76-.66-5.16-.75-10.38-.31-15.57Z"/>
        <g>
          <path class="cls-1" d="M278.37,141.44c-.56-4.41-.65-8.94-.27-13.45,5.34-62.66,2.36-104.53-8.6-121.09-2.86-4.32-7.64-6.9-12.78-6.9-1.59,0-3.15.25-4.66.74-24.35,7.91-55.98,50.9-67.75,67.91-19-5.12-42.78-5.19-43.92-5.19s-24.91.07-43.92,5.19C84.71,51.64,53.07,8.65,28.72.74c-1.51-.49-3.08-.74-4.66-.74-5.14,0-9.92,2.58-12.78,6.9C.32,23.46-2.66,65.33,2.68,127.99c.38,4.51.29,9.04-.27,13.45-3.02,23.66-9.79,105.05,29.93,158.96,40.49,54.95,75.94,63.54,99.4,69.23,1.01.25,2.01.49,2.99.73,1.85.46,3.76.69,5.66.69s3.81-.23,5.66-.69c.98-.24,1.97-.48,2.99-.73,23.46-5.68,58.91-14.27,99.4-69.23,39.72-53.91,32.95-135.3,29.93-158.96ZM240.39,294.46c-40.05,54.36-73.74,60.52-96.73,66.17-2.15.53-4.39.53-6.55,0-22.98-5.66-56.67-11.81-96.73-66.17C3,243.72,9.29,166.51,12.33,142.7c.66-5.16.75-10.38.31-15.57C5.64,44.98,14.71,19.83,19.62,12.42c1.31-1.97,3.76-2.9,6.01-2.17,26.25,8.53,66.76,70.21,66.76,70.21,18-7,48-7,48-7,0,0,9.86,0,21.66,1.32-.07.18-72.38,178.12,91.43,197.4-3.62,7.79-7.94,15.29-13.09,22.28Z"/>
          <g>
            <g>
              <g>
                <path d="M167.5,227.53c-.03-.21-2.59-21.27,11.71-37.58,11.23-12.79,29.53-19.28,54.39-19.28,3.03,0,6.2.1,9.42.29l.61.04-.16.59c-.14.51-14.38,51.3-54.75,51.3h0c-2.61,0-5.3-.21-8.02-.63-.28-.04-.56-.06-.84-.06-.83,0-1.69.19-2.49.55l-9.78,5.51-.1-.73Z"/>
                <path class="cls-7" d="M233.61,171.17c3,0,6.11.09,9.39.29,0,0-13.82,50.93-54.27,50.93-2.54,0-5.19-.2-7.94-.63-.31-.05-.61-.07-.92-.07-.93,0-1.84.21-2.69.6l-9.17,5.17s-7.37-56.29,65.61-56.29M233.61,170.17c-25.02,0-43.44,6.54-54.77,19.45-14.46,16.47-11.95,37.1-11.84,37.97l.19,1.47,1.29-.73,9.13-5.15c.72-.32,1.49-.49,2.24-.49.26,0,.52.02.77.06,2.74.42,5.46.64,8.1.64,16.89,0,31.81-8.96,43.14-25.91,8.5-12.72,12.06-25.63,12.1-25.76l.32-1.19-1.23-.07c-3.23-.19-6.41-.29-9.45-.29h0Z"/>
              </g>
              <path d="M112.78,227.46s8-61-75-56c0,0,15.6,57.53,62.21,50.31,1.23-.19,2.48.01,3.61.53l9.17,5.17Z"/>
            </g>
            <path d="M181.03,307.15c-19.58,1.62-37.64-15.86-37.64-15.86v-16.83c12.63-3.99,15.87-11.96,17.28-16.85.6-2.08-.98-4.15-3.15-4.15h-34.27c-2.17,0-3.75,2.07-3.15,4.15,1.42,4.89,4.65,12.86,17.28,16.85v16.83s-18.06,17.48-37.64,15.86c-2.35-.19-4.36,1.68-4.36,4.04h0c0,2.24,1.81,4.05,4.06,4.06,6.54.02,20.46-1.65,37.92-13.57.68-.46,1.43-.81,2.22-1.02h0c.53-.13,1.08-.13,1.6,0h0c.79.2,1.55.55,2.22,1.02,17.46,11.93,31.38,13.6,37.92,13.57,2.24,0,4.06-1.82,4.06-4.06h0c0-2.36-2.01-4.24-4.36-4.04Z"/>
          </g>
          <circle class="cls-5" cx="51.39" cy="259.46" r="20"/>
        </g>
      </g>
    </g>
  </g>
</svg>